<?xml version="1.0" encoding="UTF-8" standalone="no"?>
<!-- Created with Inkscape (http://www.inkscape.org/) -->

<svg
   width="512.0px"
   height="512.0px"
   viewBox="0 0 512.0 512.0"
   version="1.1"
   id="SVGRoot"
   sodipodi:docname="storygenieLogo.svg"
   xml:space="preserve"
   inkscape:version="1.2.2 (b0a84865, 2022-12-01)"
   inkscape:export-filename="storygenieLogoBackground.png"
   inkscape:export-xdpi="96"
   inkscape:export-ydpi="96"
   xmlns:inkscape="http://www.inkscape.org/namespaces/inkscape"
   xmlns:sodipodi="http://sodipodi.sourceforge.net/DTD/sodipodi-0.dtd"
   xmlns="http://www.w3.org/2000/svg"
   xmlns:svg="http://www.w3.org/2000/svg"><sodipodi:namedview
     id="namedview15920"
     pagecolor="#ffffff"
     bordercolor="#000000"
     borderopacity="0.25"
     inkscape:showpageshadow="2"
     inkscape:pageopacity="0.0"
     inkscape:pagecheckerboard="0"
     inkscape:deskcolor="#d1d1d1"
     inkscape:document-units="px"
     showgrid="true"
     inkscape:zoom="1.0211014"
     inkscape:cx="124.86517"
     inkscape:cy="312.40776"
     inkscape:window-width="1456"
     inkscape:window-height="916"
     inkscape:window-x="498"
     inkscape:window-y="338"
     inkscape:window-maximized="0"
     inkscape:current-layer="layer6"><inkscape:grid
       type="xygrid"
       id="grid16043" /></sodipodi:namedview><defs
     id="defs15915"><inkscape:perspective
       sodipodi:type="inkscape:persp3d"
       inkscape:vp_x="0 : 256 : 1"
       inkscape:vp_y="0 : 1000 : 0"
       inkscape:vp_z="512 : 256 : 1"
       inkscape:persp3d-origin="256 : 170.66667 : 1"
       id="perspective21721" /></defs><g
     inkscape:groupmode="layer"
     id="layer6"
     inkscape:label="icon]"
     style="display:inline"><g
       id="g21633"
       transform="matrix(2.0141471,0,0,2.0141471,-259.47076,-271.5207)"><path
         style="display:inline;fill:#81ae9d;fill-opacity:1"
         d="m 186.00088,237.29572 c -4.8148,5.68125 3.00669,15.15148 7.61051,21.00501 3.96692,4.2879 19.31787,12.56871 17.9608,18.11301 -8.35887,6.75084 -21.49017,4.56346 -29.68099,11.26356 -4.78837,3.91689 -10.04693,10.19404 -9.89366,15.70192 1.44457,51.91064 96.7159,52.66332 126.34389,31.92102 19.56485,-13.69719 30.56479,-33.3421 30.58484,-68.17132 0.006,-9.79481 6.40792,-21.17053 17.3953,-25.3231 -1.72892,-8.43895 -2.02207,-8.46757 -2.02207,-8.46757 -19.84157,-7.74934 -28.69256,8.56279 -32.04385,15.0832 -4.14475,8.06421 -4.71092,22.41539 -9.81396,28.29671 -17.90301,20.63349 -45.08673,11.45813 -46.57633,-0.60884 -0.1931,-1.56423 0.23084,-3.14412 0.30442,-4.71851 0.32701,-6.99697 5.01041,-15.55608 0.60885,-21.00501 -15.07653,-18.66406 -55.26562,-31.39371 -70.77775,-13.09008 z"
         id="path17002"
         sodipodi:nodetypes="accasssccsssaaa" /><path
         style="display:inline;fill:#659c87;fill-opacity:1"
         d="m 184.29498,238.47418 c -1.9231,10.78302 6.50857,18.97187 15.2247,25.60518 8.3011,6.31746 22.26023,10.72466 32.6639,11.48773 7.14074,0.52375 14.13341,-2.30868 21.17618,-3.59857 2.58988,-0.47434 5.34368,-0.5034 7.27986,-2.28769 5.11218,-4.71114 7.0562,-12.41167 6.14556,-19.3037 -0.97838,-7.40475 -5.73132,-14.60673 -12.71271,-22.5157 -1.32179,-3.0394 -0.77793,-8.88873 -0.77793,-8.88873 -4.40816,-3.85433 -12.84889,-5.71061 -18.56195,-4.42661 0,0 -48.71746,12.83671 -50.43761,23.92809 z"
         id="path17024"
         sodipodi:nodetypes="cssssscscc"
         inkscape:label="path17024" /><path
         style="display:inline;fill:#fb9f89;fill-opacity:1"
         d="m 187.24549,234.57315 c -2.491,-14.05454 12.1006,-25.49061 12.1006,-25.49061 0,0 -5.84021,-15.04798 -11.4063,-19.34112 -3.85619,-2.97429 -12.22913,-1.34108 -14.28268,3.07474 -2.28885,4.92179 11.73219,10.81894 7.63726,14.38186 -4.80454,4.18033 -13.89342,-5.03834 -15.4729,-11.20794 -1.39744,-5.45854 2.40147,-12.38799 7.24052,-15.27453 10.83295,-6.46196 25.77199,-1.84867 37.78959,1.98371 6.8248,2.17641 18.1509,11.50549 18.1509,11.50549 0,0 6.2167,-5.36249 20.63054,-3.17393 4.90579,0.74488 5.14941,8.77553 5.85193,13.68757 0.78264,5.47226 2.70963,13.54402 -1.98371,16.46475 -4.4921,2.7955 -9.69109,-5.48762 -14.97697,-5.25682 -7.61311,0.33242 -15.18598,4.30135 -20.82891,9.4226 -3.58633,3.25477 -2.59836,11.21609 -7.24052,12.59653 -3.8408,1.14214 -6.75176,-4.84474 -10.71201,-5.45519 -4.17395,-0.64339 -11.76031,6.24132 -12.49734,2.08289 z"
         id="path17066"
         sodipodi:nodetypes="scsaaaaacsaaaaaas" /><path
         style="display:inline;fill:#ffffff;fill-opacity:1"
         d="m 330.73106,218.43155 c 1.99215,-15.36783 -29.91214,-15.80378 4.09022,-42.6236 -20.34065,29.88998 14.93813,17.9584 -4.09022,42.6236 z"
         id="path21543"
         sodipodi:nodetypes="ccc" /></g></g></svg>
